<svg xmlns="http://www.w3.org/2000/svg" viewBox="0 0 200 200" role="img" aria-labelledby="t4">
  <title id="t4">Training split donut chart mockup</title>
  <defs>
    <linearGradient id="seg1" x1="0" y1="0" x2="1" y2="1"><stop offset="0%" stop-color="#0A0A0A"/><stop offset="100%" stop-color="#404040"/></linearGradient>
    <linearGradient id="seg2" x1="0" y1="0" x2="1" y2="1"><stop offset="0%" stop-color="#737373"/><stop offset="100%" stop-color="#A3A3A3"/></linearGradient>
    <linearGradient id="seg3" x1="0" y1="0" x2="1" y2="1"><stop offset="0%" stop-color="#D4D4D4"/><stop offset="100%" stop-color="#E5E5E5"/></linearGradient>
  </defs>
  <rect width="200" height="200" fill="#FFFFFF"/>
  <!-- ring C=2πr ≈ 389.56 for r=62 -->
  <circle cx="100" cy="100" r="62" fill="none" stroke="#F5F5F5" stroke-width="28"/>
  <circle cx="100" cy="100" r="62" fill="none" stroke="url(#seg1)" stroke-width="28"
    stroke-dasharray="148.03 241.53" stroke-linecap="round" transform="rotate(-90 100 100)"/>
  <circle cx="100" cy="100" r="62" fill="none" stroke="url(#seg2)" stroke-width="28"
    stroke-dasharray="136.35 253.21" stroke-dashoffset="-148.03" stroke-linecap="round" transform="rotate(-90 100 100)"/>
  <circle cx="100" cy="100" r="62" fill="none" stroke="url(#seg3)" stroke-width="28"
    stroke-dasharray="105.18 284.38" stroke-dashoffset="-284.38" stroke-linecap="round" transform="rotate(-90 100 100)"/>
  <circle cx="100" cy="100" r="38" fill="#FFFFFF"/>
  <text x="100" y="96" font-family="Inter,system-ui,sans-serif" font-size="14" font-weight="800" fill="#0A0A0A" text-anchor="middle">38%</text>
  <text x="100" y="112" font-family="Inter,system-ui,sans-serif" font-size="9" fill="#737373" text-anchor="middle">Push</text>
  <rect x="24" y="158" width="152" height="30" rx="6" fill="#FAFAFA" stroke="#E5E5E5"/>
  <circle cx="38" cy="173" r="4" fill="#0A0A0A"/>
  <text x="48" y="176" font-family="Inter,system-ui,sans-serif" font-size="9" fill="#525252">Push</text>
  <circle cx="92" cy="173" r="4" fill="#737373"/>
  <text x="102" y="176" font-family="Inter,system-ui,sans-serif" font-size="9" fill="#525252">Pull</text>
  <circle cx="142" cy="173" r="4" fill="#D4D4D4"/>
  <text x="152" y="176" font-family="Inter,system-ui,sans-serif" font-size="9" fill="#525252">Legs</text>
</svg>
